<svg version="1.2" xmlns="http://www.w3.org/2000/svg" viewBox="0 0 32 32" width="32" height="32">
	<title>logo_new-svg</title>
	<style>
		.s0 { fill: #cc0000 } 
	</style>
	<g id="g2900">
		<path id="rect4165-6" class="s0" d="m3.2 12.9l3.9 4 3.8-3.7c5.7 6.1 11.7 12 17.4 18.2 0.8 0.8 2.2 0.8 3.1 0 0.8-0.9 0.8-2.3 0-3.1-6.1-5.7-12.2-11.5-18.3-17.3l5.1-5-7.1-0.9z"/>
		<path id="path4179-3" class="s0" d="m16 0c3.3 1.8 5.8 4.5 7.2 7.2 1.5 2.8 2.2 5.8 2.2 8.1 0 4.8-3.9 8.7-8.7 8.7-2.6 0-4.9-1.1-6.5-2.9l-0.8 0.7q-0.3 0-0.5 0c-0.4 0-0.8 0.1-1 0.4-0.6 0.1-1.2 0.5-1.4 1.1-0.6 1.4-1.8 2.4-3.2 2.9q0 0 0 0c-0.7 0.2-1.3 0.6-1.9 1.2-1.1 1.1-1.6 2.5-1.3 3.5q-0.1 0.1-0.1 0.3c0 0.4 0.4 0.8 0.9 0.8q0.1 0 0.3-0.1c1 0.3 2.3-0.3 3.4-1.4 0.6-0.6 1-1.3 1.3-2 0.4-1.4 1.5-2.5 2.8-3.1q0.1 0 0.1-0.1c0.5-0.2 0.8-0.6 0.9-1.1 2 2.4 5.1 4 8.6 4.1 6.2 0.1 11-4.5 11.2-11.2 0.1-3.3-1.2-7.6-4.2-11.2-2.2-2.7-5.5-4.9-9.3-5.9z"/>
	</g>
</svg>